<?xml version="1.0" encoding="UTF-8"?>
<svg id="Camada_1" data-name="Camada 1" xmlns="http://www.w3.org/2000/svg" viewBox="0 0 1091.25 574.5" fill="#484848">
  <path d="m526.53,574.47c-94.99,0-189.98,0-284.96,0-4.14,0-4.41-.36-3.76-4.62,2.78-18.2,8.03-35.68,14.72-52.83,7.31-18.7,16.76-36.12,29.44-51.7,8.36-10.28,17.71-19.6,28.19-27.79,2.18-1.71,3.45-1.32,5.5.03,17.6,11.58,35.3,23.02,52.94,34.55,6.58,4.3,13.09,8.7,19.63,13.06.82.54,1.74,1.52,2.58.45.7-.89-.44-1.52-1.01-2.1-26.47-27.51-51.38-56.44-77.32-84.44-17.2-18.57-34.09-37.42-51.13-56.14-.59-.65-1.37-1.23-1.08-2.22.37-1.27,1.52-1.06,2.5-1.1,36.46-1.47,72.95-1.66,109.43-2.62,6.86-.18,13.72-.92,20.58.05.62.09,1.38.15,1.69-.46.42-.83-.24-1.45-.84-1.85-.82-.54-1.73-.98-2.65-1.35-24.35-9.68-47.04-22.09-65.35-41.19-14.09-14.69-22.4-31.79-18.74-52.87,1.72-9.91,7.49-17.51,14.81-24.01,10.6-9.42,23.15-15.48,36.25-20.57,14.58-5.66,29.68-9.49,44.85-13.11.73-.17,1.47-.36,2.21-.38,2.98-.05,3.98-1.35,3.94-4.45-.24-15.72-.67-31.46.47-47.16.57-7.81,1.07-15.64,2.66-23.4,1.15-5.61,4.21-9.03,8.87-11.7,10.41-5.96,21.57-8.86,33.55-9.24,18.03-.58,35.94,1.6,53.93,1.93,20.02.37,39.92-1.19,59.77-3.76,18.86-2.44,37.33-6.83,55.91-10.71,17.48-3.65,35.1-4.95,52.89-4.15,9.28.42,15.85,6.5,17.39,15.65.75,4.45.61,8.95.59,13.45-.12,28.83-.22,57.66-.28,86.5-.01,5.5.06,5.54,6.61,7.48,16.43,4.87,32.45,10.78,47.71,18.61,9.13,4.68,17.66,10.19,25.46,16.97,13.46,11.71,18.6,26.27,16.68,43.79-1.92,17.54-7.42,33.53-19.23,46.97-1.88,2.14-4.05,4.05-6.13,6.01-.84.8-1.84,1.63-1.44,2.82.52,1.57,1.87.66,2.89.56,8.47-.85,16.97-.67,25.45-.88,19.61-.5,39.22-1.02,58.83-1.52,1.09-.03,2.41-.47,3.08.7.72,1.25-.07,2.42-.78,3.44-9.47,13.76-19.01,27.47-28.44,41.26-11.19,16.37-22.25,32.82-33.44,49.18-9,13.17-18.06,26.31-27.22,39.36-1.83,2.61-1.09,4.06,1.02,5.94,10.59,9.43,19.92,19.95,26.59,32.56,4.11,7.77,5.97,16.35,8.47,24.68,4.69,15.64,9.16,31.34,13.83,46.99,1.34,4.5,1.01,5.3-3.18,5.3-94.99,0-189.97,0-284.96,0Zm20.35-140.37c10.34.33,20.07-1.38,29.03-5.81,22.94-11.35,36.49-29.83,41.05-55,.61-3.38-.51-4.39-3.55-4.29-4.24.14-8.49.32-12.73.41-20,.43-39.98-.25-59.9-1.95-16.66-1.42-33.31-3.14-49.78-6.27-4.78-.91-9.6-1.61-14.36-2.65-1.89-.41-4.76-.98-4.08,2.69,2.25,12.17,5.41,24.06,11.3,35.06,6.37,11.9,15.02,21.65,26.81,28.45,11.3,6.52,23.5,9.51,36.21,9.35Zm8.03-136.45c14.65.37,35.51-2.1,56.15-7.04,27.7-6.62,53.5-17.58,77.5-32.83,4.19-2.66,7.95-5.05,7.66-11.48-.36-7.91-1.78-7.82-7.25-4.56-.42.25-.93.37-1.4.53-15.41,5.45-30.92,10.6-46.69,14.96-19.17,5.3-38.57,9.47-58.31,11.86-25.72,3.11-51.39,1.65-76.96-1.91-15.83-2.2-31.56-4.95-47.2-8.32-15.13-3.26-30.19-6.75-45.05-11.09-1.43-.42-3.21-1.12-4.04.55-.8,1.61-1.27,3.63.17,5.28.73.83,1.67,1.49,2.59,2.12,17.98,12.17,37.43,21.31,57.97,28.31,25.39,8.65,51.43,13.28,84.83,13.61Zm136.25,120.6c8.16.28,15.9-2.85,22.44-9.12,9.22-8.84,14.83-19.92,19.5-31.54,4.46-11.12,7.48-22.7,10.69-34.21.2-.72.67-1.48-.13-2.02-.97-.65-1.95-.19-2.8.35-3.49,2.23-7.28,3.85-11.08,5.44-30.68,12.85-63.09,17.68-95.91,20.56-2.13.19-5.06-1.1-6.18,1.28-.93,1.98,1.82,3.24,2.8,4.9.06.11.13.21.2.32,6.18,10.04,13.61,19.07,22.31,27.02,10.56,9.64,22.3,16.83,38.16,17.02Z"/>
</svg>